<svg width="87" height="87" viewBox="0 0 87 87" fill="none" xmlns="http://www.w3.org/2000/svg">
<path d="M43.5014 2.71875C35.821 2.72489 28.2985 4.89973 21.7998 8.99292H65.1435C58.6619 4.91046 51.1615 2.73606 43.5014 2.71875V2.71875Z" fill="#B22234"/>
<path d="M21.7982 8.99292C18.9986 10.7652 16.4255 12.872 14.1357 15.2668H72.9118C70.5886 12.8651 67.9791 10.758 65.1418 8.99292H21.7982Z" fill="white"/>
<path d="M14.1352 15.2668C12.2842 17.1911 10.6267 19.2926 9.18652 21.5409H77.8585C76.4188 19.2926 74.7617 17.1912 72.9112 15.2668H14.1352Z" fill="#B22234"/>
<path d="M9.18699 21.5409C7.89981 23.5317 6.78868 25.6309 5.86621 27.8148H81.1031C80.2052 25.6336 79.1198 23.5344 77.859 21.5409H9.18699Z" fill="white"/>
<path d="M5.86613 27.8148C5.03112 29.8488 4.36197 31.947 3.86523 34.0889H83.1308C82.6253 31.9462 81.9472 29.848 81.103 27.8148H5.86613Z" fill="#B22234"/>
<path d="M3.86499 34.0889C3.37238 36.1514 3.04138 38.2491 2.875 40.3631H84.1478C83.9724 38.2484 83.6323 36.1507 83.1306 34.0889H3.86499Z" fill="white"/>
<path d="M2.87573 40.3635C2.78314 41.4068 2.73078 42.4532 2.71875 43.5004C2.72272 44.5474 2.767 45.5938 2.8515 46.6374H84.1243C84.2169 45.5941 84.2692 44.5477 84.2812 43.5004C84.2773 42.4535 84.233 41.4071 84.1485 40.3635H2.87573Z" fill="#B22234"/>
<path d="M2.85352 46.6365C3.02884 48.7511 3.36894 50.8489 3.87072 52.9106H83.1363C83.6289 50.8482 83.9599 48.7504 84.1263 46.6365H2.85352Z" fill="white"/>
<path d="M3.86914 52.9111C4.37461 55.0538 5.05275 57.152 5.89692 59.1853H81.1338C81.9688 57.1512 82.638 55.053 83.1347 52.9111H3.86914Z" fill="#B22234"/>
<path d="M5.89746 59.1852C6.79536 61.3664 7.8808 63.4656 9.14157 65.4591H77.8136C79.1008 63.4683 80.2119 61.3691 81.1344 59.1852H5.89746Z" fill="white"/>
<path d="M9.14062 65.4591C10.5804 67.7074 12.2374 69.8088 14.0879 71.7332H72.864C74.7149 69.8089 76.3724 67.7074 77.8126 65.4591H9.14062Z" fill="#B22234"/>
<path d="M14.0898 71.7332C16.413 74.1349 19.0226 76.242 21.8598 78.0071H65.2035C68.003 76.2348 70.5761 74.128 72.8659 71.7332H14.0898Z" fill="white"/>
<path d="M21.8564 78.0071C28.3381 82.0895 35.8385 84.2639 43.4986 84.2812C51.1789 84.2751 58.7014 82.1003 65.2001 78.0071H21.8564Z" fill="#B22234"/>
<path d="M43.5 2.71875C32.6841 2.71875 22.3113 7.01533 14.6633 14.6633C7.01533 22.3113 2.71875 32.6841 2.71875 43.5C2.72409 44.5777 2.77213 45.6547 2.86279 46.7285H46.7285V2.88037C45.6549 2.78385 44.5779 2.72994 43.5 2.71875V2.71875Z" fill="#3C3B6E"/>
<path d="M28.9053 5.46819C28.362 5.66655 27.8229 5.87646 27.2884 6.09776L27.8842 6.55044L27.4813 7.8524L28.5486 7.05556L29.6471 7.89057L29.2346 6.54314L30.3331 5.72307H28.9833L28.9053 5.46819ZM35.8229 4.35425L35.3992 5.72296H34.0541L35.1429 6.55053L34.7399 7.85232L35.8072 7.05553L36.9058 7.89051L36.4932 6.5433L37.5917 5.72296H36.2421L35.8229 4.35425V4.35425ZM43.0816 4.35425L42.6578 5.72296H41.3128L42.4015 6.55053L41.9985 7.85232L43.0658 7.05553L44.1644 7.89051L43.7519 6.5433L44.8504 5.72296H43.5007L43.0816 4.35425ZM18.4127 11.4088C18.2209 11.5518 18.0304 11.6965 17.8412 11.8429L18.7592 12.5409L18.4127 11.4088ZM24.9349 9.0045L24.5112 10.3732H23.1662L24.2549 11.2008L23.8519 12.5026L24.9192 11.7058L26.0178 12.5408L25.6053 11.1936L26.7037 10.3732H25.3541L24.9349 9.0045ZM32.1936 9.0045L31.7699 10.3732H30.4248L31.5136 11.2008L31.1106 12.5026L32.1779 11.7058L33.2765 12.5408L32.8639 11.1936L33.9624 10.3732H32.6128L32.1936 9.0045V9.0045ZM39.4522 9.0045L39.0285 10.3732H37.6834L38.7722 11.2008L38.3692 12.5026L39.4365 11.7058L40.5351 12.5408L40.1225 11.1936L41.221 10.3732H39.8714L39.4522 9.0045V9.0045ZM14.4325 14.9138C14.0302 15.3396 13.6372 15.774 13.2536 16.2167L12.9639 17.1526L14.0312 16.3558L15.1297 17.1908L14.7172 15.8437L15.8157 15.0233H14.466L14.4325 14.9138ZM21.3056 13.6546L20.8819 15.0233H19.5368L20.6256 15.8509L20.2226 17.1526L21.2899 16.3559L22.3885 17.1908L21.9759 15.8436L23.0744 15.0233H21.7248L21.3056 13.6546V13.6546ZM28.5643 13.6546L28.1405 15.0233H26.7955L27.8843 15.8509L27.4813 17.1526L28.5485 16.3559L29.6471 17.1908L29.2346 15.8436L30.3331 15.0233H28.9834L28.5643 13.6546V13.6546ZM35.8229 13.6546L35.3992 15.0233H34.0541L35.1429 15.8509L34.7399 17.1526L35.8072 16.3559L36.9058 17.1908L36.4932 15.8436L37.5917 15.0233H36.2421L35.8229 13.6546V13.6546ZM43.0816 13.6546L42.6578 15.0233H41.3128L42.4015 15.8509L41.9985 17.1526L43.0658 16.3559L44.1644 17.1908L43.7519 15.8436L44.8504 15.0233H43.5007L43.0816 13.6546V13.6546ZM10.7257 19.3105C10.3499 19.8113 9.98578 20.3206 9.63348 20.8382L9.33479 21.8029L10.4018 21.0061L11.5006 21.8411L11.0881 20.494L12.1863 19.6736H10.8369L10.7257 19.3105ZM17.6763 18.3048L17.2526 19.6735H15.9075L16.9963 20.5011L16.5933 21.8029L17.6605 21.0061L18.7592 21.8411L18.3466 20.4939L19.4451 19.6735H18.0954L17.6763 18.3048V18.3048ZM24.9349 18.3048L24.5112 19.6735H23.1662L24.2549 20.5011L23.8519 21.8029L24.9192 21.0061L26.0178 21.8411L25.6053 20.4939L26.7037 19.6735H25.3541L24.9349 18.3048V18.3048ZM32.1936 18.3048L31.7699 19.6735H30.4248L31.5136 20.5011L31.1106 21.8029L32.1779 21.0061L33.2765 21.8411L32.8639 20.4939L33.9624 19.6735H32.6128L32.1936 18.3048V18.3048ZM39.4522 18.3048L39.0285 19.6735H37.6834L38.7722 20.5011L38.3692 21.8029L39.4365 21.0061L40.5351 21.8411L40.1225 20.4939L41.221 19.6735H39.8714L39.4522 18.3048V18.3048ZM7.54497 24.3239C7.30124 24.7807 7.06623 25.2421 6.84006 25.7078L7.87121 26.4914L7.45868 25.1443L8.5572 24.3239H7.54497ZM14.047 22.9551L13.6233 24.3238H12.2782L13.367 25.1514L12.964 26.4532L14.0312 25.6564L15.1298 26.4913L14.7173 25.1441L15.8158 24.3238H14.4661L14.047 22.9551ZM21.3056 22.9551L20.8819 24.3238H19.5368L20.6256 25.1514L20.2226 26.4532L21.2899 25.6564L22.3885 26.4913L21.9759 25.1441L23.0744 24.3238H21.7248L21.3056 22.9551V22.9551ZM28.5643 22.9551L28.1405 24.3238H26.7955L27.8843 25.1514L27.4813 26.4532L28.5485 25.6564L29.6471 26.4913L29.2346 25.1441L30.3331 24.3238H28.9834L28.5643 22.9551ZM35.8229 22.9551L35.3992 24.3238H34.0541L35.1429 25.1514L34.7399 26.4532L35.8072 25.6564L36.9058 26.4913L36.4932 25.1441L37.5917 24.3238H36.2421L35.8229 22.9551V22.9551ZM43.0816 22.9551L42.6578 24.3238H41.3128L42.4015 25.1514L41.9985 26.4532L43.0658 25.6564L44.1644 26.4913L43.7519 25.1441L44.8504 24.3238H43.5007L43.0816 22.9551ZM10.4177 27.6052L9.99393 28.9739H8.64885L9.73765 29.8014L9.33466 31.1032L10.4019 30.3064L11.5005 31.1414L11.088 29.7942L12.1865 28.9739H10.8368L10.4177 27.6052V27.6052ZM17.6763 27.6052L17.2526 28.9739H15.9075L16.9963 29.8014L16.5933 31.1032L17.6605 30.3064L18.7592 31.1414L18.3466 29.7942L19.4451 28.9739H18.0954L17.6763 27.6052ZM24.9349 27.6052L24.5112 28.9739H23.1662L24.2549 29.8014L23.8519 31.1032L24.9192 30.3064L26.0178 31.1414L25.6053 29.7942L26.7037 28.9739H25.3541L24.9349 27.6052ZM32.1936 27.6052L31.7699 28.9739H30.4248L31.5136 29.8014L31.1106 31.1032L32.1779 30.3064L33.2765 31.1414L32.8639 29.7942L33.9624 28.9739H32.6128L32.1936 27.6052V27.6052ZM39.4522 27.6052L39.0285 28.9739H37.6834L38.7722 29.8014L38.3692 31.1032L39.4365 30.3064L40.5351 31.1414L40.1225 29.7942L41.221 28.9739H39.8714L39.4522 27.6052V27.6052ZM6.78833 32.2554L6.36461 33.6241H5.01953L6.10833 34.4517L5.70533 35.7535L6.77259 34.9567L7.8712 35.7917L7.45865 34.4445L8.55713 33.6241H7.20749L6.78833 32.2554ZM14.047 32.2554L13.6233 33.6241H12.2782L13.367 34.4517L12.964 35.7535L14.0312 34.9567L15.1298 35.7917L14.7173 34.4445L15.8158 33.6241H14.4661L14.047 32.2554ZM21.3056 32.2554L20.8819 33.6241H19.5368L20.6256 34.4517L20.2226 35.7535L21.2899 34.9567L22.3885 35.7917L21.9759 34.4445L23.0744 33.6241H21.7248L21.3056 32.2554V32.2554ZM28.5643 32.2554L28.1405 33.6241H26.7955L27.8843 34.4517L27.4813 35.7535L28.5485 34.9567L29.6471 35.7917L29.2346 34.4445L30.3331 33.6241H28.9834L28.5643 32.2554ZM35.8229 32.2554L35.3992 33.6241H34.0541L35.1429 34.4517L34.7399 35.7535L35.8072 34.9567L36.9058 35.7917L36.4932 34.4445L37.5917 33.6241H36.2421L35.8229 32.2554V32.2554ZM43.0816 32.2554L42.6578 33.6241H41.3128L42.4015 34.4517L41.9985 35.7535L43.0658 34.9567L44.1644 35.7917L43.7519 34.4445L44.8504 33.6241H43.5007L43.0816 32.2554ZM10.4177 36.9057L9.99393 38.2744H8.64885L9.73765 39.1019L9.33466 40.4037L10.4019 39.6069L11.5005 40.4419L11.088 39.0947L12.1865 38.2744H10.8368L10.4177 36.9057V36.9057ZM17.6763 36.9057L17.2526 38.2744H15.9075L16.9963 39.1019L16.5933 40.4037L17.6605 39.6069L18.7592 40.4419L18.3466 39.0947L19.4451 38.2744H18.0954L17.6763 36.9057ZM24.9349 36.9057L24.5112 38.2744H23.1662L24.2549 39.1019L23.8519 40.4037L24.9192 39.6069L26.0178 40.4419L25.6053 39.0947L26.7037 38.2744H25.3541L24.9349 36.9057ZM32.1936 36.9057L31.7699 38.2744H30.4248L31.5136 39.1019L31.1106 40.4037L32.1779 39.6069L33.2765 40.4419L32.8639 39.0947L33.9624 38.2744H32.6128L32.1936 36.9057V36.9057ZM39.4522 36.9057L39.0285 38.2744H37.6834L38.7722 39.1019L38.3692 40.4037L39.4365 39.6069L40.5351 40.4419L40.1225 39.0947L41.221 38.2744H39.8714L39.4522 36.9057V36.9057ZM6.78833 41.5557L6.36461 42.9244H5.01953L6.10833 43.752L5.70533 45.0538L6.77259 44.257L7.8712 45.092L7.45865 43.7448L8.55713 42.9244H7.20749L6.78833 41.5557V41.5557ZM14.047 41.5557L13.6233 42.9244H12.2782L13.367 43.752L12.964 45.0538L14.0312 44.257L15.1298 45.092L14.7173 43.7448L15.8158 42.9244H14.4661L14.047 41.5557V41.5557ZM21.3056 41.5557L20.8819 42.9244H19.5368L20.6256 43.752L20.2226 45.0538L21.2899 44.257L22.3885 45.092L21.9759 43.7448L23.0744 42.9244H21.7248L21.3056 41.5557V41.5557ZM28.5643 41.5557L28.1405 42.9244H26.7955L27.8843 43.752L27.4813 45.0538L28.5485 44.257L29.6471 45.092L29.2346 43.7448L30.3331 42.9244H28.9834L28.5643 41.5557V41.5557ZM35.8229 41.5557L35.3992 42.9244H34.0541L35.1429 43.752L34.7399 45.0538L35.8072 44.257L36.9058 45.092L36.4932 43.7448L37.5917 42.9244H36.2421L35.8229 41.5557V41.5557ZM43.0816 41.5557L42.6578 42.9244H41.3128L42.4015 43.752L41.9985 45.0538L43.0658 44.257L44.1644 45.092L43.7519 43.7448L44.8504 42.9244H43.5007L43.0816 41.5557V41.5557Z" fill="white"/>
</svg>
